<?xml version="1.0" standalone="no"?>
<!DOCTYPE svg PUBLIC "-//W3C//DTD SVG 20010904//EN"
 "http://www.w3.org/TR/2001/REC-SVG-20010904/DTD/svg10.dtd">
<svg version="1.0" xmlns="http://www.w3.org/2000/svg"
 width="500.000000pt" height="500.000000pt" viewBox="0 0 500.000000 500.000000"
 preserveAspectRatio="xMidYMid meet">
<metadata>
Created by potrace 1.14, written by Peter Selinger 2001-2017
</metadata>
<g transform="translate(0.000000,500.000000) scale(0.100000,-0.100000)"
fill="#000000" stroke="none">
<path d="M2370 4625 c5 -23 -1 -32 -22 -31 -13 1 -22 7 -20 15 1 7 -2 10 -8 6
-6 -3 -8 -10 -5 -15 8 -13 -59 -19 -74 -6 -11 8 -13 8 -8 -1 5 -7 1 -12 -10
-12 -10 0 -27 -1 -38 -4 -11 -2 -23 1 -27 7 -5 7 -8 5 -8 -6 0 -15 -4 -16 -26
-8 -15 6 -23 6 -19 1 3 -5 1 -12 -4 -15 -5 -3 -11 1 -15 9 -3 8 -11 15 -18 14
-10 0 -10 -2 0 -6 6 -2 12 -9 12 -14 0 -6 -4 -7 -10 -4 -5 3 -10 2 -10 -3 0
-13 -59 -21 -66 -10 -3 5 0 17 8 26 12 15 11 16 -5 3 -10 -8 -15 -21 -12 -31
5 -14 0 -17 -25 -14 -18 2 -29 0 -25 -6 4 -6 -1 -7 -11 -3 -12 4 -15 3 -10 -6
4 -6 4 -10 -1 -9 -4 1 -18 -3 -30 -10 -13 -7 -23 -10 -23 -6 0 3 -7 1 -15 -6
-8 -7 -15 -9 -15 -6 0 4 -9 2 -19 -4 -11 -5 -27 -7 -36 -4 -13 5 -13 9 -3 23
10 13 10 14 -2 4 -15 -14 -23 -46 -9 -37 5 3 9 0 9 -5 0 -10 -14 -15 -24 -8
-2 1 -13 -7 -25 -17 -12 -11 -21 -16 -21 -11 0 4 -7 2 -15 -5 -8 -7 -15 -9
-15 -4 0 4 -9 -2 -20 -14 -21 -22 -36 -30 -26 -13 3 5 -1 11 -9 15 -8 3 -12
12 -9 20 3 8 1 17 -5 21 -6 3 -9 0 -6 -7 2 -7 -11 -24 -30 -38 -19 -14 -35
-29 -35 -34 0 -5 8 -2 17 5 11 10 14 10 9 2 -11 -19 5 -16 21 5 8 9 12 11 8 5
-4 -9 0 -11 12 -7 15 4 14 3 -2 -7 -11 -7 -29 -14 -40 -15 -31 -4 -31 -4 -16
-13 7 -5 9 -11 4 -14 -5 -3 -15 3 -22 15 -7 11 -8 17 -2 13 18 -10 13 1 -6 16
-10 7 -15 9 -10 4 10 -12 -22 -45 -39 -38 -8 3 -14 0 -14 -7 0 -7 -7 -10 -16
-6 -9 3 -12 2 -9 -5 4 -5 1 -17 -7 -26 -12 -15 -11 -15 10 -2 12 8 22 17 22
22 0 4 5 5 12 1 7 -5 8 -3 3 5 -6 10 -3 11 14 1 18 -9 20 -14 10 -26 -8 -10
-16 -11 -22 -5 -12 12 -39 2 -30 -12 3 -5 1 -7 -5 -3 -6 3 -13 2 -17 -4 -3 -5
-1 -10 5 -10 6 0 8 -5 4 -11 -3 -6 -9 -7 -13 -2 -5 8 -14 9 -38 4 -4 0 1 -7
11 -14 17 -12 17 -14 -1 -28 -17 -13 -17 -13 -3 5 14 18 13 18 -10 12 -19 -6
-21 -5 -10 3 12 8 12 11 1 11 -11 0 -11 3 -1 15 7 9 19 14 27 11 9 -4 11 -1 7
6 -4 6 -3 9 2 6 5 -4 10 6 10 20 1 15 -1 21 -3 14 -3 -6 -9 -10 -14 -7 -5 4
-6 -2 -2 -12 3 -10 3 -15 -2 -11 -4 4 -16 -4 -27 -17 -10 -13 -24 -23 -31 -21
-7 1 -9 1 -4 -1 4 -3 4 -9 1 -14 -3 -6 -11 -5 -20 2 -8 6 -17 9 -21 5 -3 -3
-1 -6 6 -6 7 0 9 -5 6 -10 -4 -6 -10 -8 -15 -5 -4 3 -10 -2 -13 -10 -4 -8 -15
-12 -25 -10 -15 3 -19 -1 -15 -16 3 -10 10 -19 15 -19 5 0 6 -6 2 -12 -6 -10
-4 -10 8 0 13 10 17 10 21 -2 4 -11 1 -13 -10 -9 -13 5 -15 2 -11 -15 8 -29 0
-28 -11 1 -5 13 -15 24 -23 24 -7 0 -22 4 -33 7 -14 5 -13 3 4 -7 l24 -15 -22
-7 c-16 -5 -20 -12 -15 -27 4 -15 3 -18 -6 -13 -9 5 -11 4 -6 -3 4 -6 -3 -31
-15 -54 -27 -54 -25 -51 -43 -41 -10 6 -12 13 -6 23 8 12 10 12 10 -4 0 -16 3
-17 12 -8 9 9 10 15 2 20 -6 4 -10 15 -9 24 2 9 -3 19 -11 22 -12 4 -12 2 -4
-14 9 -17 7 -22 -12 -29 -13 -5 -26 -7 -30 -4 -5 2 -8 -1 -8 -7 0 -7 8 -9 23
-4 22 7 22 7 3 -15 -15 -16 -21 -18 -28 -9 -4 7 -8 9 -9 3 -1 -5 -3 -14 -4
-20 -2 -5 -3 -16 -4 -23 0 -7 -6 -10 -11 -7 -6 4 -7 11 -4 17 4 7 2 8 -5 4 -6
-4 -9 -11 -6 -16 3 -4 -1 -11 -7 -14 -7 -2 -2 -3 12 -1 14 2 28 4 32 4 4 1 5
10 3 21 -2 12 0 18 6 14 6 -3 16 2 23 12 10 13 15 14 21 4 5 -9 4 -11 -3 -6
-11 6 -16 -5 -9 -20 1 -3 -6 -10 -16 -16 -14 -7 -16 -13 -6 -24 8 -10 8 -14 0
-14 -6 0 -11 5 -11 10 0 6 -5 10 -11 10 -6 0 -9 -6 -6 -14 3 -8 0 -22 -8 -32
-10 -14 -11 -23 -2 -34 9 -12 9 -13 -3 -2 -16 14 -34 16 -25 3 3 -6 -2 -14
-12 -19 -23 -13 -27 -46 -5 -38 13 5 12 2 -2 -9 -18 -14 -15 -20 7 -16 5 1 6
-3 2 -8 -8 -14 -37 -1 -31 14 2 7 -1 18 -7 25 -9 10 -9 11 3 5 9 -5 12 -4 7 1
-5 5 -12 9 -15 9 -4 0 -13 4 -19 8 -7 5 -13 4 -13 -1 0 -6 7 -12 15 -16 8 -3
15 -13 15 -23 0 -11 -3 -14 -8 -7 -4 6 -18 16 -32 23 -22 11 -23 10 -8 -2 10
-8 14 -18 10 -22 -4 -5 -1 -5 6 -1 6 4 12 3 12 -3 0 -6 12 -18 28 -26 15 -9
19 -14 10 -11 -10 3 -20 1 -24 -5 -3 -6 -12 -8 -20 -5 -7 3 -16 1 -19 -4 -6
-10 9 -15 30 -10 5 1 6 -2 2 -6 -4 -5 -20 -10 -35 -11 -21 -3 -24 -1 -12 7 8
5 11 10 6 10 -5 0 -3 7 4 15 7 8 11 15 9 16 -2 0 -19 2 -37 4 -35 4 -39 -4 -5
-10 10 -1 17 -8 16 -14 -2 -6 -4 -16 -5 -23 -6 -26 -22 -37 -38 -25 -9 7 -8 4
3 -9 9 -11 14 -24 10 -29 -5 -4 2 -3 14 4 20 10 21 9 14 -17 -5 -15 -6 -38 -4
-51 2 -14 1 -22 -3 -19 -3 3 -7 14 -8 24 -2 10 -8 20 -14 22 -11 3 -11 -16 1
-35 5 -7 6 -14 3 -14 -3 -1 -10 -3 -16 -4 -5 -1 -13 -3 -17 -4 -4 0 2 -8 13
-16 19 -15 19 -15 -1 -8 -18 6 -19 5 -5 -13 14 -18 14 -18 -2 -5 -22 17 -23 8
-2 -27 11 -18 12 -22 2 -10 -18 22 -33 11 -15 -11 10 -14 10 -14 -4 -4 -9 7
-20 9 -25 5 -4 -4 -3 0 4 9 6 9 8 20 4 24 -4 5 -2 5 4 2 7 -4 10 2 8 18 -1 14
2 23 6 20 5 -3 7 4 5 15 -2 11 0 18 5 15 5 -3 7 4 5 15 -2 11 0 18 5 15 6 -3
7 1 4 9 -3 8 -14 14 -24 13 -18 -1 -18 -2 -2 -21 16 -18 16 -19 -1 -13 -15 5
-16 3 -7 -12 7 -15 5 -22 -13 -35 -15 -10 -16 -14 -4 -10 13 5 16 2 11 -10 -3
-9 -11 -13 -17 -9 -5 3 -7 1 -3 -5 3 -6 -4 -18 -16 -28 -15 -10 -17 -14 -6
-11 10 4 20 2 23 -3 6 -9 -9 -15 -29 -11 -5 1 -4 -4 2 -12 10 -11 9 -17 -5
-28 -15 -12 -16 -12 -10 3 3 10 3 20 -2 22 -4 3 -7 -15 -6 -40 1 -25 -2 -47
-7 -50 -4 -3 -8 -11 -8 -17 0 -8 3 -8 9 1 7 11 9 11 14 -1 7 -19 -23 -32 -34
-15 -4 6 -5 16 -2 22 3 5 1 6 -5 2 -9 -5 -9 -13 0 -29 7 -12 11 -25 10 -29 -1
-4 5 -5 13 -2 8 3 24 -1 37 -10 12 -9 17 -16 11 -16 -7 0 -15 5 -18 10 -3 6
-12 10 -18 10 -7 -1 -3 -8 8 -18 22 -18 26 -35 11 -49 -5 -5 -6 -3 -2 5 4 6 3
12 -2 12 -17 0 -22 -13 -9 -28 6 -9 7 -13 1 -9 -7 4 -11 -5 -12 -24 0 -16 4
-27 9 -24 5 4 9 1 9 -5 0 -7 -7 -10 -14 -7 -10 4 -13 1 -9 -9 3 -7 9 -14 14
-14 5 0 9 -5 9 -11 0 -8 -4 -8 -15 1 -8 6 -18 9 -23 6 -5 -3 -9 1 -9 9 0 8 5
11 10 8 6 -3 7 -1 3 5 -4 6 -2 21 4 32 9 17 8 19 -7 13 -16 -6 -16 -4 2 17
l20 24 -27 -20 c-21 -15 -23 -21 -11 -27 9 -6 11 -13 5 -20 -15 -20 -13 -59 3
-53 19 7 30 -13 16 -27 -9 -9 -11 -7 -6 8 6 16 5 17 -4 5 -10 -13 -13 -12 -26
5 -15 19 -15 19 -12 -5 3 -16 10 -24 20 -22 9 1 21 -6 27 -17 6 -11 17 -18 24
-15 8 3 17 1 21 -5 4 -7 -1 -8 -12 -4 -16 6 -17 5 -3 -12 14 -17 14 -17 -7 -4
-13 8 -23 17 -23 22 0 4 -4 5 -10 2 -6 -3 -7 1 -4 12 5 17 5 17 -6 0 -9 -13
-8 -21 3 -32 8 -8 18 -11 23 -7 5 4 3 0 -4 -10 -9 -11 -10 -18 -2 -23 5 -3 10
-1 10 6 0 7 3 9 6 6 4 -4 1 -13 -6 -22 -10 -12 -10 -15 1 -15 11 0 11 -2 -1
-10 -8 -5 -11 -12 -7 -16 3 -4 13 -1 21 5 10 8 16 9 21 1 4 -6 1 -9 -7 -8 -7
2 -12 -2 -11 -9 2 -7 -4 -10 -12 -7 -11 5 -13 2 -9 -10 3 -9 12 -16 19 -16 8
0 17 -4 20 -10 4 -7 -2 -7 -19 0 -16 6 -27 6 -31 0 -4 -6 -1 -10 6 -10 7 0 9
-3 6 -7 -4 -3 1 -12 11 -20 16 -12 16 -13 -2 -7 -16 6 -17 5 -6 -16 7 -12 7
-20 2 -16 -6 3 -13 2 -17 -4 -3 -5 -1 -10 5 -10 6 0 9 -4 6 -9 -4 -5 0 -12 6
-14 10 -4 10 -6 1 -6 -7 -1 -10 -7 -7 -15 4 -10 -1 -14 -14 -13 -12 0 -18 5
-16 9 3 5 11 5 17 2 9 -5 9 -4 0 6 -6 7 -9 19 -6 26 3 8 -1 14 -8 14 -9 1 -8
4 4 11 9 5 17 15 17 20 0 6 -4 8 -9 4 -6 -3 -8 6 -5 20 3 15 0 25 -8 25 -6 0
-3 6 8 14 14 11 16 17 7 27 -6 6 -9 18 -6 25 3 8 -1 14 -8 14 -9 1 -8 4 4 11
15 9 16 13 5 26 -7 9 -12 18 -10 20 8 11 0 13 -13 3 -19 -16 -19 -44 0 -60 8
-7 12 -16 9 -21 -3 -5 -13 0 -23 12 -14 17 -18 19 -18 6 0 -9 4 -14 8 -12 4 3
10 -2 13 -11 3 -8 10 -12 16 -9 5 3 10 0 10 -8 0 -24 -12 -27 -30 -5 -14 17
-17 18 -17 5 0 -10 2 -15 5 -12 7 7 41 -39 35 -48 -2 -4 -12 2 -22 14 -14 18
-18 19 -18 6 0 -10 2 -15 5 -12 7 7 41 -39 35 -48 -2 -4 -14 3 -25 15 -11 13
-9 7 5 -13 29 -41 25 -60 -5 -26 -17 19 -17 18 1 -10 14 -21 18 -34 11 -38 -8
-5 -8 -11 0 -20 8 -10 5 -17 -12 -30 -20 -14 -20 -16 -4 -13 10 2 21 -3 24
-11 3 -8 0 -11 -7 -7 -6 4 -11 3 -11 -3 0 -5 4 -13 10 -16 5 -3 10 -1 10 5 0
6 5 8 11 4 7 -4 7 1 -1 16 -7 12 -8 20 -3 17 14 -9 12 26 -1 36 -7 6 -6 7 4 4
8 -2 23 0 33 5 12 6 17 5 15 -4 -2 -7 3 -12 10 -10 8 1 11 -2 7 -9 -5 -8 -10
-8 -18 0 -21 21 -30 11 -11 -11 10 -13 12 -17 4 -10 -21 18 -35 15 -18 -5 8
-10 18 -25 22 -33 4 -8 -1 -4 -13 10 -20 25 -20 25 -18 3 1 -13 5 -23 10 -23
4 0 6 -4 3 -9 -4 -5 -3 -11 1 -14 5 -2 2 -2 -5 -1 -7 2 -17 -8 -22 -22 l-10
-26 -21 24 c-13 14 -11 9 4 -13 27 -37 26 -63 -1 -31 -11 13 -11 11 1 -9 14
-24 14 -28 -6 -50 l-22 -23 23 18 c12 11 22 14 22 9 0 -18 28 -23 41 -7 11 13
10 15 -2 14 -27 -4 -40 0 -33 11 4 8 9 7 15 -2 7 -12 9 -12 9 0 0 11 4 11 18
-2 10 -10 22 -14 27 -10 4 5 5 2 1 -5 -4 -7 -11 -10 -16 -7 -4 3 -13 -2 -20
-10 -11 -13 -8 -19 11 -17 3 0 5 -10 5 -23 0 -13 -4 -21 -9 -18 -4 3 -6 7 -3
10 7 7 -27 43 -36 37 -4 -3 -8 0 -8 6 0 6 -5 8 -11 4 -8 -5 -7 -9 3 -15 18
-10 17 -51 -2 -57 -7 -3 -10 0 -7 5 3 5 0 10 -8 10 -13 0 -13 -3 0 -17 8 -9
12 -20 8 -25 -5 -4 -3 -5 3 -2 7 4 12 -3 12 -18 0 -15 -5 -22 -11 -18 -6 3 -3
-4 6 -16 17 -25 12 -55 -7 -44 -6 4 -5 -1 3 -11 10 -11 11 -20 4 -27 -7 -7 -1
-20 18 -41 16 -16 26 -34 23 -39 -3 -6 6 -8 21 -5 26 5 28 -5 2 -10 -7 -2 -22
-5 -35 -8 -13 -3 -20 -1 -17 5 4 5 12 6 18 3 7 -4 8 -3 4 1 -10 12 -38 15 -31
4 3 -5 -1 -9 -8 -9 -7 0 -4 -6 7 -12 28 -16 45 -40 44 -63 -1 -17 -2 -17 -6
-2 -2 9 -8 15 -13 12 -5 -3 -12 0 -16 6 -4 8 -3 9 4 5 7 -4 12 -3 12 3 0 5 -4
13 -10 16 -5 3 -10 1 -10 -5 0 -6 -5 -8 -13 -4 -7 5 -6 0 3 -11 30 -39 50 -59
50 -49 0 5 5 1 11 -9 6 -9 15 -14 21 -11 7 4 8 2 4 -5 -5 -8 -16 -5 -37 9 -37
27 -38 9 -2 -19 20 -15 22 -19 8 -14 -11 3 -17 3 -13 -2 4 -4 3 -14 -3 -22 -9
-10 -8 -17 1 -28 7 -8 9 -15 4 -15 -5 0 -2 -5 6 -10 8 -5 11 -10 5 -11 -5 0
-18 -2 -28 -4 -9 -2 -15 1 -11 6 3 5 11 6 17 3 7 -4 8 -3 4 1 -10 12 -38 15
-31 4 3 -5 -1 -9 -8 -9 -7 -1 -2 -7 12 -15 19 -10 28 -11 40 -2 8 6 7 2 -3
-10 -18 -21 -18 -22 1 -32 11 -6 23 -7 27 -3 5 4 5 1 1 -6 -5 -9 -12 -9 -27
-2 -15 9 -19 7 -19 -5 0 -9 5 -13 11 -10 6 4 5 -2 -3 -14 -15 -25 -25 -27 -25
-6 0 8 4 12 9 9 4 -3 5 3 1 12 -4 11 -8 13 -11 6 -2 -7 -9 -9 -15 -5 -7 4 -5
-2 3 -12 14 -17 13 -18 -5 -12 -18 7 -19 6 -3 -6 10 -8 15 -16 12 -19 -3 -4 3
-5 13 -5 10 1 23 11 30 22 15 25 17 11 2 -17 -10 -18 -9 -20 5 -15 8 3 18 3
20 -2 7 -10 -26 -11 -39 0 -6 4 -18 2 -28 -6 -16 -11 -16 -13 -1 -19 23 -9 31
-7 14 4 -8 5 -10 10 -4 10 11 0 54 -37 54 -47 0 -3 -9 2 -20 12 -11 10 -20 13
-20 7 0 -7 -3 -11 -7 -11 -21 3 -29 -3 -30 -22 -1 -14 3 -19 12 -15 16 6 40
-29 30 -44 -3 -5 3 -14 12 -20 17 -11 17 -11 1 -6 -12 3 -18 0 -18 -10 0 -9 5
-12 13 -8 8 5 8 2 -2 -9 -10 -13 -11 -20 -2 -30 6 -8 8 -17 4 -21 -4 -4 5 -5
21 -2 27 5 30 -5 3 -10 -7 -2 -22 -5 -35 -8 -13 -3 -20 -1 -17 5 4 5 12 6 18
3 7 -4 8 -3 4 1 -10 12 -38 15 -31 4 3 -5 -1 -9 -8 -9 -7 0 -4 -6 7 -12 28
-16 45 -40 44 -63 -1 -17 -2 -17 -6 -2 -2 9 -8 15 -13 12 -5 -3 -12 0 -16 6
-4 8 -3 9 4 5 7 -4 12 -3 12 3 0 5 -4 13 -10 16 -6 3 -10 1 -10 -5 0 -6 -5 -8
-12 -4 -8 5 -7 0 2 -11 30 -39 50 -59 50 -49 0 5 5 1 11 -9 6 -9 15 -14 21
-11 7 4 8 2 4 -5 -5 -8 -16 -5 -37 9 -37 27 -38 9 -2 -19 20 -15 22 -19 8 -14
-11 3 -17 3 -13 -2 4 -4 3 -14 -3 -22 -9 -10 -8 -17 1 -28 7 -8 9 -15 4 -15
-5 0 -2 -5 6 -10 8 -5 11 -10 5 -11 -5 0 -18 -2 -28 -4 -9 -2 -15 1 -11 6 3 5
11 6 17 3 7 -4 8 -3 4 1 -10 12 -38 15 -31 4 3 -5 -1 -9 -8 -9 -7 -1 -2 -7 12
-15 18 -9 29 -10 38 -3 9 8 11 7 6 -5 -7 -18 -26 -18 -64 2 -23 11 -23 11 -7
-3 18 -14 18 -15 0 -26 -15 -10 -16 -11 -1 -6 27 8 31 -11 6 -29 -21 -15 -21
-16 -3 -13 11 2 20 -3 20 -9 0 -7 4 -13 10 -13 12 0 15 53 3 61 -6 4 2 7 17 7
19 0 23 -3 14 -9 -12 -8 -6 -13 12 -11 3 1 6 -6 6 -14 0 -10 -4 -11 -11 -4
-16 16 -30 12 -15 -6 11 -13 10 -17 -4 -25 -9 -5 -14 -16 -11 -24 4 -8 11 -12
18 -8 6 4 3 -5 -7 -20 -23 -35 -21 -48 3 -19 17 21 19 21 17 3 0 -11 -4 -18
-8 -15 -4 2 -10 0 -14 -6 -3 -5 -1 -10 5 -10 6 0 8 -4 5 -10 -3 -5 0 -10 7
-10 8 0 9 -3 3 -8 -16 -11 -15 -44 1 -38 8 3 13 0 11 -7 -1 -7 4 -11 11 -9 8
1 11 -2 7 -9 -5 -8 -10 -8 -18 0 -21 21 -30 11 -11 -11 10 -13 12 -17 4 -11
-19 18 -35 16 -20 -2 6 -8 9 -18 6 -24 -3 -5 0 -12 6 -14 10 -4 10 -6 1 -6 -7
-1 -13 -6 -13 -12 0 -6 6 -9 13 -6 8 3 14 -1 14 -8 0 -7 -6 -11 -14 -8 -8 3
-11 0 -8 -8 3 -8 -3 -19 -13 -26 -15 -9 -19 -8 -19 3 0 7 5 10 10 7 6 -4 7 -1
2 7 -6 9 -4 11 6 5 11 -6 11 -5 2 5 -6 7 -9 19 -6 26 3 8 -1 14 -8 14 -9 1 -8
4 4 11 9 5 17 15 17 20 0 6 -4 8 -9 4 -6 -3 -8 6 -5 20 3 16 0 25 -8 25 -8 0
-6 5 5 11 9 5 17 15 17 20 0 6 -4 8 -9 4 -6 -3 -8 4 -6 16 2 12 -2 28 -11 36
-13 14 -13 17 3 30 13 10 15 16 5 19 -6 3 -10 10 -6 15 3 5 0 9 -5 9 -14 0
-14 -17 0 -25 6 -5 4 -12 -8 -20 -17 -13 -17 -14 0 -32 9 -11 14 -22 11 -26
-4 -3 -15 4 -26 16 -11 12 -9 6 5 -14 29 -41 25 -60 -5 -26 -17 19 -17 18 1
-10 14 -21 18 -34 11 -38 -8 -5 -6 -13 4 -24 9 -10 13 -20 10 -24 -4 -3 -15 4
-26 16 -11 12 -9 6 5 -14 29 -41 25 -60 -5 -26 -18 20 -18 20 1 -9 19 -29 19
-32 3 -49 -9 -10 -12 -15 -5 -11 22 12 23 -13 1 -29 -20 -14 -20 -16 -4 -13
10 2 21 -3 24 -11 3 -8 0 -11 -7 -7 -6 4 -11 3 -11 -3 0 -5 5 -13 10 -16 6 -3
10 -1 10 5 0 6 5 8 10 5 8 -5 7 -11 -1 -21 -10 -13 -14 -12 -29 1 -14 13 -17
13 -17 1 0 -8 5 -14 10 -13 6 1 11 -11 11 -28 1 -25 5 -30 26 -31 14 0 31 4
38 10 15 11 32 -7 32 -33 0 -8 3 -11 7 -8 3 4 13 1 21 -6 13 -10 14 -8 8 13
-5 17 -4 20 2 12 5 -8 8 -40 7 -73 l-1 -59 35 32 c19 18 43 43 54 56 10 12 24
19 30 15 7 -3 9 -3 5 1 -8 9 230 252 243 249 5 -2 8 3 6 10 -1 6 4 11 10 10 7
-2 12 1 10 5 -1 4 57 67 128 139 116 117 132 130 143 115 10 -15 11 -13 6 9
-5 26 7 43 31 44 6 1 9 7 7 15 -3 12 0 12 14 -2 10 -10 13 -21 8 -30 -12 -19
-16 -50 -5 -43 6 3 15 -3 21 -14 5 -11 6 -22 2 -25 -8 -4 -9 -91 -2 -91 1 0 4
-10 5 -23 1 -12 0 -20 -3 -18 -2 3 -13 1 -23 -4 -12 -7 -19 -6 -22 3 -2 6 -3
4 -2 -5 2 -11 -4 -18 -13 -19 -14 0 -15 -1 -2 -7 8 -4 17 -14 19 -22 6 -25 9
-45 10 -53 1 -5 6 -5 12 -1 8 4 7 9 -2 15 -8 5 -9 9 -3 9 17 0 37 -27 31 -42
-3 -8 -6 -5 -6 7 -1 15 -3 17 -14 6 -10 -10 -8 -15 6 -25 17 -13 17 -14 0 -21
-17 -6 -17 -7 0 -20 13 -9 15 -14 5 -17 -10 -4 -10 -8 -2 -19 15 -20 26 -51
15 -44 -5 3 -12 1 -16 -5 -6 -9 8 -14 28 -11 5 1 6 -3 3 -8 -4 -5 -3 -11 1
-14 5 -2 2 -2 -6 0 -8 2 -11 -2 -7 -12 3 -9 2 -13 -4 -10 -6 3 -10 1 -10 -5 0
-6 -5 -8 -10 -5 -6 4 -4 12 5 22 9 8 13 18 10 21 -3 4 -10 0 -16 -8 -7 -12 -8
-10 -6 7 2 12 6 26 10 29 11 12 8 24 -5 20 -7 -1 -10 -1 -5 1 4 3 7 9 7 14 0
6 -4 8 -8 5 -5 -3 -9 1 -9 9 0 8 4 15 9 15 5 0 6 5 2 11 -4 8 -9 7 -15 -2 -6
-10 -9 -10 -9 -2 0 6 4 14 9 17 5 4 8 12 7 19 -3 17 -25 54 -26 42 0 -6 6 -17
12 -23 10 -10 8 -14 -10 -18 -12 -4 -22 -10 -22 -15 0 -5 6 -6 13 -4 8 4 12
-5 12 -25 1 -21 -3 -29 -12 -26 -7 3 -12 0 -10 -7 1 -7 -4 -11 -11 -9 -8 1
-11 -2 -7 -8 5 -8 11 -7 21 1 11 9 18 8 30 -2 14 -12 14 -14 -2 -26 -10 -7
-12 -13 -6 -13 7 0 12 -5 12 -11 0 -5 -6 -7 -12 -3 -8 5 -7 0 2 -11 14 -16 13
-17 -7 -11 -12 4 -24 3 -26 -2 -3 -4 6 -7 21 -7 38 2 46 -5 25 -21 -17 -13
-17 -14 1 -7 12 4 17 3 13 -4 -8 -13 18 -37 32 -29 5 4 12 2 15 -3 4 -5 -2
-12 -11 -14 -16 -4 -16 -5 -1 -6 20 -1 37 21 20 27 -9 3 -9 9 -1 23 7 15 7 24
-2 35 -8 10 -8 14 0 14 6 0 11 -5 11 -12 0 -9 3 -9 12 0 19 19 25 14 25 -20 1
-84 12 -120 27 -82 3 8 11 12 16 9 6 -4 9 -3 8 2 -5 16 60 76 73 68 8 -5 10
-4 5 3 -9 15 171 195 186 186 7 -4 8 -3 4 4 -8 13 278 305 288 295 3 -4 6 0 6
7 0 18 65 77 79 72 6 -2 10 2 9 9 -2 8 9 14 27 15 20 2 25 0 16 -5 -8 -5 -21
-6 -30 -3 -14 5 -14 4 -2 -11 11 -14 17 -15 30 -5 10 8 9 5 -3 -10 -11 -12
-14 -22 -8 -22 7 0 12 -5 12 -12 0 -6 -11 -1 -24 11 -18 17 -29 20 -41 13 -16
-8 -16 -9 0 -16 9 -3 21 -3 27 0 6 4 8 -1 4 -14 -4 -11 -2 -23 3 -27 7 -4 8 1
5 12 -5 15 -4 16 5 3 10 -13 13 -13 26 4 13 18 14 18 12 -2 0 -11 -5 -18 -9
-16 -9 6 -11 -5 -10 -48 1 -29 -11 -37 -24 -16 -5 7 -3 8 5 3 10 -6 11 -3 1
15 -7 12 -8 20 -3 17 5 -4 10 0 10 7 0 8 -6 12 -13 9 -6 -2 -19 5 -27 17 -13
19 -15 19 -21 3 -4 -9 -4 -14 0 -10 4 3 15 -3 25 -15 22 -25 25 -35 6 -19 -10
8 -14 7 -14 -4 0 -8 4 -12 9 -9 4 3 8 1 8 -5 0 -5 -3 -11 -7 -14 -5 -2 -3 -3
4 -1 19 4 23 -8 7 -23 -11 -12 -12 -18 -3 -29 11 -14 2 -19 -24 -15 -4 1 -2
-9 5 -21 17 -32 21 -61 6 -52 -7 4 -8 3 -4 -4 4 -7 2 -12 -5 -12 -7 0 -10 -3
-7 -6 3 -3 15 0 27 8 18 11 23 10 38 -6 17 -18 17 -18 -4 -7 -14 7 -24 8 -28
1 -3 -5 -3 -10 2 -10 4 0 1 -4 -7 -10 -9 -6 -20 -5 -30 3 -10 8 -9 5 3 -9 9
-11 14 -24 10 -29 -5 -4 -2 -5 5 -1 6 4 12 3 12 -3 0 -5 -3 -11 -7 -14 -5 -2
-3 -2 4 -1 16 4 27 -13 12 -18 -6 -2 -12 -15 -13 -28 -1 -15 -7 -24 -15 -22
-8 2 -5 -10 9 -33 15 -25 18 -35 8 -35 -10 0 -9 -3 2 -10 8 -5 11 -10 5 -10
-5 0 -1 -6 10 -13 21 -13 31 -37 16 -37 -5 0 -12 6 -14 13 -3 6 -6 8 -6 2 0
-5 4 -17 9 -25 9 -13 11 -13 19 0 5 8 7 18 4 23 -3 5 0 7 8 5 15 -6 15 -10 4
-43 -5 -15 -4 -16 3 -6 7 9 16 11 28 6 21 -9 30 -12 44 -14 5 0 7 -7 4 -15 -3
-8 1 -17 8 -22 7 -4 10 -4 7 0 -6 6 136 156 146 156 2 0 19 16 38 35 19 19 33
35 32 35 -2 0 8 13 23 28 15 15 30 26 35 24 4 -2 7 2 7 8 0 6 5 8 12 4 6 -4 8
-3 5 3 -7 11 76 103 92 103 4 0 14 11 21 25 7 13 17 22 22 19 4 -3 8 0 8 6 0
6 5 8 12 4 7 -5 8 -3 4 5 -8 13 23 43 36 35 4 -3 5 2 2 10 -3 9 2 17 15 21 12
4 18 11 15 17 -5 8 -1 9 10 5 9 -4 15 -3 12 2 -8 12 19 33 29 23 5 -4 5 -1 1
5 -4 7 -2 13 4 13 6 0 8 5 4 12 -5 7 -2 9 9 5 9 -3 21 1 29 11 12 15 11 16 -4
3 -11 -8 -18 -9 -18 -3 0 13 36 26 49 17 6 -3 8 -12 4 -20 -3 -8 0 -15 7 -15
6 0 8 5 5 10 -3 6 0 10 8 10 7 0 14 -7 14 -15 0 -8 -4 -15 -9 -15 -4 0 -8 -9
-8 -20 0 -11 5 -20 11 -20 5 0 7 -5 3 -12 -4 -6 -3 -8 3 -5 6 4 9 28 7 54 -6
75 -6 74 -20 62 -14 -11 -34 -4 -34 11 0 5 6 7 14 4 8 -3 17 0 21 6 5 8 12 5
22 -9 8 -12 19 -18 25 -15 7 4 7 0 -1 -13 -7 -14 -7 -23 2 -32 9 -9 9 -14 -2
-21 -12 -7 -11 -11 4 -27 10 -10 22 -18 26 -18 4 0 10 -3 14 -7 12 -12 -22 -3
-38 10 -13 11 -16 10 -22 -7 -3 -11 -9 -20 -13 -20 -20 3 -21 -4 -7 -31 19
-38 19 -46 -2 -29 -11 10 -14 10 -9 1 4 -7 2 -12 -6 -12 -8 0 -6 -5 5 -11 9
-5 17 -15 17 -21 0 -6 -7 -5 -17 3 -16 13 -17 12 -4 -3 11 -15 11 -18 0 -18
-11 0 -11 -2 1 -10 20 -13 38 5 34 35 -1 14 1 23 4 21 4 -2 8 7 8 20 1 13 -3
22 -8 21 -6 -1 -13 5 -15 13 -4 12 -3 12 5 2 7 -11 10 -11 15 3 5 10 3 14 -5
9 -7 -4 -8 -3 -4 4 11 18 29 14 22 -4 -7 -19 11 -57 24 -49 5 3 11 1 14 -4 7
-11 -13 -9 -33 3 -11 7 -13 5 -7 -9 4 -11 2 -22 -5 -26 -9 -5 -7 -12 6 -26 10
-10 22 -18 26 -18 4 0 10 -3 14 -7 12 -12 -22 -3 -38 10 -13 11 -16 10 -22 -8
-3 -11 -10 -18 -15 -15 -14 9 -23 -15 -11 -29 7 -9 7 -16 -1 -24 -9 -9 -9 -15
-1 -23 8 -8 14 -5 23 11 9 17 9 21 0 15 -7 -4 -4 5 6 21 13 18 14 25 5 20 -10
-6 -12 -5 -7 2 11 19 25 14 23 -8 -1 -11 -4 -20 -7 -20 -3 0 -7 -11 -8 -26 -1
-14 2 -23 7 -20 5 3 12 -1 15 -10 5 -12 10 -14 19 -5 10 8 14 7 14 -3 0 -15
-14 -16 -34 -3 -7 5 -18 5 -25 1 -7 -5 -8 -3 -3 5 6 10 3 11 -14 2 -11 -7 -21
-17 -20 -24 0 -9 2 -9 6 1 8 20 18 14 19 -13 2 -21 -1 -23 -16 -15 -24 13 -30
13 -30 -2 0 -6 3 -8 7 -5 3 4 18 0 32 -9 14 -9 23 -13 19 -9 -4 4 -3 17 3 28
9 15 8 18 -3 12 -11 -7 -11 -5 0 6 11 12 14 12 22 -1 7 -10 5 -18 -5 -26 -8
-6 -12 -14 -8 -17 3 -4 12 -2 20 4 9 9 13 8 13 0 0 -6 -4 -11 -8 -11 -5 0 -9
-7 -9 -15 0 -10 6 -14 16 -10 13 5 14 4 4 -6 -18 -18 -16 -34 1 -20 11 10 16
8 20 -7 6 -18 36 -27 36 -10 0 4 -3 8 -8 8 -4 0 -13 9 -19 20 -10 15 -10 21 0
26 6 4 9 3 4 -1 -4 -5 1 -17 10 -28 10 -10 19 -31 19 -46 1 -14 3 -40 5 -57
l3 -30 65 68 c47 49 67 65 74 55 6 -8 7 -7 4 4 -7 21 37 64 54 54 8 -5 10 -4
5 4 -10 15 191 217 213 214 10 -2 11 0 3 3 -8 4 64 83 195 214 147 147 209
217 213 237 8 41 4 1705 -4 1790 -25 275 -118 539 -274 778 -25 39 -48 72 -52
75 -3 3 -27 32 -55 65 -81 98 -253 261 -289 274 -6 2 -13 7 -16 10 -23 28
-185 123 -290 171 -30 14 -58 29 -61 33 -3 5 -8 8 -10 6 -2 -1 -15 1 -29 5
-14 5 -30 9 -37 11 -20 5 -87 26 -103 32 -8 4 -19 5 -25 4 -5 -1 -15 6 -22 15
-8 11 -13 13 -13 5 0 -9 -6 -11 -17 -6 -10 4 -31 9 -48 12 -16 3 -38 9 -49 15
-11 6 -16 6 -12 0 3 -6 -17 -5 -52 2 -31 6 -85 11 -119 11 -35 0 -63 3 -63 8
0 4 -8 4 -17 0 -27 -13 -88 -10 -88 4 0 6 -4 15 -8 20 -5 4 -8 4 -7 -2z m-764
-237 c5 -7 2 -9 -8 -5 -9 3 -22 0 -29 -6 -11 -10 -11 -9 0 6 16 20 27 22 37 5z
m-93 -69 c4 -16 3 -18 -9 -8 -7 6 -11 15 -8 20 8 13 11 11 17 -12z m-174 -119
c-12 -33 -19 -36 -37 -18 -9 9 -11 5 -8 -20 3 -32 3 -32 -16 -15 -11 10 -23
17 -26 15 -4 -2 -8 2 -10 8 -3 9 1 9 16 1 25 -13 43 -14 22 -1 -13 8 -12 11 5
24 11 8 23 12 26 10 4 -2 12 3 19 11 18 22 20 19 9 -15z m-112 -76 c-3 -4 -2
-15 3 -25 7 -12 6 -20 -2 -25 -7 -5 -8 -3 -3 6 6 10 4 12 -9 7 -31 -12 -40 5
-15 24 23 18 39 25 26 13z m-17 -65 c0 -5 -4 -7 -10 -4 -5 3 -10 -1 -10 -9 0
-8 -5 -18 -12 -22 -6 -4 -9 -3 -6 2 3 5 8 17 11 27 7 18 27 24 27 6z m-35 -59
c-3 -5 -12 -10 -18 -10 -7 0 -6 4 3 10 19 12 23 12 15 0z m-50 -49 c3 -5 2
-12 -3 -15 -5 -3 -9 1 -9 9 0 17 3 19 12 6z m-65 -107 c0 -8 -19 -13 -24 -6
-3 5 1 9 9 9 8 0 15 -2 15 -3z m2247 -99 c0 -8 -4 -12 -9 -9 -5 3 -6 10 -3 15
9 13 12 11 12 -6z m-1354 -22 c-5 -12 -3 -14 7 -8 10 6 12 4 7 -9 -4 -10 -3
-15 3 -11 18 11 50 14 55 4 4 -5 1 -9 -4 -9 -6 0 -11 -4 -11 -8 0 -5 21 -8 46
-7 30 1 48 -4 53 -13 6 -10 10 -11 15 -3 4 6 2 11 -4 11 -6 0 -9 4 -5 9 3 5 0
13 -6 17 -7 4 -9 3 -6 -2 3 -6 -3 -11 -14 -11 -10 -1 -19 3 -19 9 0 5 -6 8
-13 5 -8 -3 -14 3 -14 14 -1 10 3 19 8 19 6 0 7 -4 4 -10 -3 -5 -1 -10 4 -10
6 0 11 4 11 8 0 5 7 9 16 9 15 0 15 -1 0 -12 -8 -7 -13 -15 -9 -18 3 -4 12 -2
20 4 7 6 13 8 13 3 0 -5 5 -2 11 6 9 13 10 13 8 0 -3 -29 1 -41 12 -34 7 4 7
-1 -1 -16 -11 -21 -11 -21 15 -4 30 19 42 14 26 -13 -6 -10 -11 -12 -11 -5 0
10 -4 10 -20 0 -11 -7 -20 -17 -20 -22 0 -4 7 -3 16 5 12 10 17 10 23 1 4 -7
15 -10 25 -6 13 5 14 9 6 14 -14 9 -5 30 13 30 9 0 9 -2 -1 -8 -15 -10 30 -56
67 -70 l25 -9 -27 -5 c-14 -3 -24 -1 -21 4 3 5 0 7 -8 6 -7 -2 -12 3 -11 9 2
7 -3 12 -10 10 -6 -1 -11 4 -9 11 1 8 -2 11 -7 8 -12 -8 -9 -30 8 -50 7 -8 9
-21 5 -27 -4 -7 -3 -9 4 -5 5 3 13 0 16 -6 3 -7 3 -2 0 12 -5 20 -4 23 7 13
28 -27 8 -65 -24 -47 -9 5 -9 4 -1 -5 9 -10 17 -10 32 -2 28 15 37 14 22 -4
-6 -8 -8 -20 -4 -26 5 -9 2 -10 -12 -6 -18 7 -18 6 -2 -6 10 -8 15 -17 11 -21
-4 -4 1 -4 11 0 12 5 14 9 6 14 -8 5 -9 10 -2 14 6 3 13 2 17 -4 3 -5 12 -10
18 -10 7 0 4 5 -6 11 -10 6 -14 15 -10 22 4 7 0 6 -10 -2 -11 -8 -17 -9 -17
-3 0 6 9 16 19 22 16 8 19 7 16 -8 -1 -9 7 -22 19 -29 11 -7 15 -12 9 -13 -7
0 -13 -5 -13 -11 0 -6 7 -9 15 -5 13 5 14 2 4 -15 -8 -15 -8 -24 0 -32 8 -8
11 -4 12 13 1 18 3 20 6 7 3 -10 -1 -25 -8 -33 -10 -13 -8 -14 22 -9 18 3 31
3 27 0 -3 -4 -21 -9 -38 -12 -27 -4 -32 -2 -26 12 4 10 2 14 -6 9 -7 -5 -8 -3
-3 6 6 9 4 11 -4 5 -10 -6 -11 -3 -2 12 12 23 -3 45 -25 36 -17 -6 -19 -24 -1
-21 7 2 11 -6 10 -19 -2 -13 2 -23 7 -23 6 0 10 -7 10 -17 0 -15 -2 -15 -19 1
-14 13 -21 14 -27 5 -4 -7 -3 -10 3 -6 6 4 16 0 23 -8 7 -8 9 -15 5 -15 -4 0
-1 -8 6 -17 12 -15 12 -16 -4 -10 -11 4 -16 3 -12 -4 4 -6 13 -8 21 -5 8 3 14
-1 14 -9 0 -8 -6 -13 -12 -11 -7 1 -10 1 -5 -1 4 -3 7 -9 7 -14 0 -6 -4 -8 -9
-5 -4 3 -17 -1 -27 -9 -13 -11 -15 -15 -4 -13 8 2 18 7 21 11 3 5 9 2 12 -7 6
-15 -4 -21 -26 -17 -4 1 -3 -7 3 -18 15 -29 12 -35 -7 -20 -16 13 -17 12 -4
-3 12 -17 9 -23 -12 -19 -5 1 -6 -3 -2 -9 3 -5 0 -10 -7 -10 -9 0 -10 -3 -2
-8 6 -4 10 -15 8 -25 -1 -9 2 -15 7 -11 5 3 6 10 3 16 -5 7 -2 8 6 3 9 -6 11
-4 5 5 -5 8 -4 11 3 6 7 -4 10 1 7 14 -2 11 0 18 5 15 5 -3 7 9 5 26 -3 21 0
29 8 26 7 -2 11 -16 11 -30 -1 -15 3 -27 7 -27 5 0 9 -5 9 -11 0 -8 -4 -8 -14
0 -10 8 -16 9 -21 1 -3 -5 -1 -10 4 -10 6 0 11 -5 11 -11 0 -5 -4 -7 -10 -4
-5 3 -10 2 -10 -4 0 -5 6 -12 13 -15 6 -3 1 -3 -13 1 -23 5 -24 5 -10 -13 14
-17 14 -18 -2 -6 -15 12 -17 11 -15 -7 1 -13 6 -19 14 -17 7 3 10 -1 7 -8 -3
-7 -11 -13 -19 -13 -8 0 -12 4 -9 9 6 10 -10 11 -19 1 -4 -3 -2 -12 4 -20 9
-9 8 -13 0 -13 -6 0 -11 5 -11 10 0 6 -5 10 -12 10 -6 0 -8 -3 -5 -7 4 -3 1
-13 -6 -21 -10 -13 -9 -15 6 -9 11 4 16 3 12 -3 -10 -16 -23 -12 -35 10 -9 17
-8 19 7 14 11 -4 14 -3 7 3 -6 4 -14 15 -17 23 -4 12 -6 12 -6 -2 -1 -9 -9
-21 -18 -27 -15 -8 -16 -12 -4 -23 8 -8 11 -8 7 -1 -3 6 -1 15 5 19 7 4 9 3 5
-4 -3 -6 -2 -13 4 -17 5 -3 10 -12 10 -18 0 -8 -3 -8 -8 -2 -4 6 -16 11 -27
13 -11 2 -30 5 -43 7 -12 2 -20 -1 -16 -6 3 -5 0 -9 -5 -9 -6 0 -11 -5 -11
-12 0 -6 9 -3 20 7 19 18 22 18 37 2 11 -11 13 -17 5 -17 -7 0 -12 5 -12 10 0
6 -5 10 -11 10 -6 0 -9 -7 -6 -14 4 -11 1 -13 -10 -9 -9 4 -14 2 -11 -3 10
-16 -56 -11 -70 5 -11 14 -11 14 -6 -1 3 -10 1 -18 -5 -18 -6 0 -11 5 -11 11
0 8 -5 8 -15 -1 -12 -10 -15 -10 -15 1 0 11 -2 11 -10 -1 -8 -12 -10 -12 -10
-1 0 8 -3 11 -7 8 -3 -4 -17 0 -31 9 -13 9 -21 11 -18 5 10 -16 -64 17 -104
47 -138 102 -195 246 -167 422 3 14 6 26 7 28 1 1 3 5 5 10 21 75 75 158 98
149 8 -3 20 -1 28 5 11 8 11 9 -3 4 -26 -8 -30 9 -8 29 11 10 20 14 20 9 0 -5
5 -1 11 9 8 14 14 16 24 7 16 -13 35 -5 34 13 0 9 -2 9 -6 0 -5 -15 -23 -17
-23 -4 0 5 10 13 23 17 12 4 25 12 29 18 5 8 8 7 8 -2 0 -7 5 -10 10 -7 9 6
14 -7 11 -30 -1 -5 6 -1 14 9 8 11 15 25 15 30 0 6 -5 4 -10 -4 -5 -8 -10 -10
-10 -4 0 14 22 34 31 28 5 -2 5 -12 2 -21z m54 20 c-9 -2 -15 -8 -12 -13 3 -5
12 -7 19 -4 7 3 16 -2 20 -12 5 -13 3 -14 -6 -7 -7 6 -21 9 -30 8 -10 -2 -21
1 -24 7 -8 12 14 28 36 27 11 -1 10 -3 -3 -6z m108 -3 c3 -6 -1 -7 -9 -4 -18
7 -21 14 -7 14 6 0 13 -4 16 -10z m1101 1 c-4 -5 0 -11 6 -14 7 -2 9 -8 5 -13
-4 -5 -13 -2 -18 6 -9 12 -10 12 -5 -2 3 -10 -2 -21 -11 -27 -9 -5 -18 -16
-19 -25 -1 -9 2 -14 7 -10 5 3 7 9 4 14 -6 10 22 23 52 24 12 1 25 4 29 8 4 4
11 5 16 2 5 -3 1 -13 -9 -21 -10 -8 -12 -11 -4 -7 7 3 18 0 23 -7 8 -11 9 -10
4 4 -7 21 20 20 42 0 7 -7 19 -13 25 -12 7 0 7 3 -2 6 -11 5 -11 7 0 15 11 8
10 8 -4 4 -10 -3 -15 -2 -12 4 3 5 -4 7 -15 5 -11 -2 -20 0 -20 6 0 5 -5 8
-11 7 -6 -2 -14 4 -16 12 -3 9 -1 11 4 5 13 -17 43 -18 37 -1 -3 8 -1 17 5 21
6 3 9 0 5 -8 -3 -9 4 -22 17 -31 29 -20 33 -45 11 -71 -17 -20 -17 -20 4 -2
11 9 27 17 35 17 10 -1 8 -5 -5 -15 -11 -8 -15 -15 -9 -15 6 0 16 7 23 15 10
12 9 16 -4 21 -9 3 -16 12 -16 20 0 17 42 13 48 -4 2 -7 9 -9 14 -6 6 4 8 2 5
-3 -4 -6 0 -13 8 -17 8 -3 12 -12 9 -21 -4 -10 0 -15 10 -15 23 0 20 -15 -3
-17 -15 -1 -18 4 -16 23 1 13 -2 24 -6 24 -5 0 -9 -7 -9 -16 0 -8 -5 -12 -10
-9 -7 5 -8 11 -1 18 10 13 -11 52 -22 40 -4 -3 -2 -12 4 -20 9 -10 8 -17 -2
-30 -7 -10 -10 -15 -5 -11 10 8 47 -23 40 -34 -8 -12 10 -10 24 4 17 17 15 2
-4 -27 -16 -24 -5 -30 24 -11 9 5 13 3 11 -5 -3 -20 33 -96 38 -81 4 10 8 10
18 2 10 -8 19 -8 34 0 17 9 20 8 15 -5 -4 -9 -9 -13 -12 -11 -3 3 -11 1 -19
-5 -10 -9 -13 -8 -13 1 0 10 -3 10 -15 0 -8 -7 -15 -18 -14 -24 0 -7 2 -6 6 2
2 6 9 12 15 12 6 0 7 -8 3 -17 -11 -27 -14 -64 -5 -58 5 3 11 1 15 -5 3 -5 -4
-11 -17 -11 l-23 -2 23 -4 c12 -2 20 -9 16 -14 -3 -5 -10 -6 -16 -3 -6 4 -8 3
-5 -2 9 -16 60 -11 65 6 4 12 3 13 -10 2 -13 -10 -17 -10 -21 2 -4 9 -2 18 4
21 5 4 7 9 5 13 -2 4 3 14 12 22 14 13 15 12 9 -4 -4 -9 -2 -26 3 -36 14 -26
2 -53 -21 -47 -10 3 -24 -2 -31 -11 -9 -10 -9 -13 -1 -9 6 4 14 3 17 -2 4 -5
-3 -13 -14 -16 -16 -5 -18 -10 -10 -20 8 -10 5 -17 -12 -30 -14 -11 -17 -15
-6 -12 10 4 20 2 23 -3 6 -9 -9 -15 -29 -11 -5 1 -3 -6 5 -15 12 -16 12 -17
-3 -11 -10 3 -22 -1 -29 -11 -11 -14 -11 -15 1 -5 11 10 16 9 27 -5 8 -9 11
-11 7 -3 -5 10 -3 11 11 4 10 -6 27 -9 39 -6 20 3 20 3 1 -5 -11 -5 -27 -7
-35 -4 -12 5 -13 3 -3 -9 10 -13 10 -19 -3 -35 -14 -18 -15 -18 -4 3 8 19 7
24 -11 33 -25 14 -38 5 -19 -13 10 -10 11 -9 5 2 -5 9 -4 12 3 7 6 -4 9 -13 5
-21 -6 -17 -23 -20 -23 -5 0 15 -38 32 -45 20 -4 -6 -3 -10 2 -9 19 3 33 -2
33 -12 0 -6 -7 -8 -16 -5 -10 4 -13 2 -7 -7 16 -26 11 -37 -13 -33 -16 3 -27
0 -31 -10 -3 -7 -9 -11 -14 -8 -5 3 -9 2 -8 -3 4 -20 -2 -27 -12 -13 -9 13
-10 12 -5 -2 3 -10 1 -20 -4 -23 -6 -4 -10 0 -10 7 0 10 -2 10 -9 -1 -5 -7
-13 -11 -18 -8 -5 3 -9 -3 -9 -13 0 -18 2 -18 18 -3 14 13 18 13 18 2 0 -11 2
-11 10 1 5 8 10 11 10 6 0 -5 7 -3 15 4 8 7 12 17 8 23 -4 6 -1 7 7 2 9 -5 11
-4 6 3 -4 7 -2 12 3 12 6 0 11 -5 11 -12 0 -6 7 -3 15 8 8 10 15 17 15 14 8
-34 7 -38 -8 -33 -11 5 -13 3 -7 -8 7 -12 6 -12 -7 -1 -11 9 -18 10 -23 2 -3
-5 -1 -10 6 -10 33 0 -25 -21 -61 -22 -8 0 -20 -5 -27 -10 -15 -12 -35 -1 -27
15 3 7 0 5 -8 -3 -13 -15 -82 -25 -73 -11 2 4 -6 7 -18 6 -31 -2 -97 16 -97
27 0 5 -4 7 -8 4 -12 -7 -92 50 -130 92 -90 100 -126 239 -97 367 12 53 62
155 77 155 4 0 8 6 8 13 0 13 77 84 86 79 2 -1 12 4 20 13 13 13 19 13 32 3
14 -11 15 -10 8 7 -4 11 -4 16 0 13 4 -4 16 -1 26 7 11 7 26 11 33 9 7 -3 16
-1 20 5 3 6 8 11 11 11 3 0 3 -4 0 -9z m55 -14 c-4 -11 -15 -21 -24 -23 -13
-2 -14 2 -5 20 13 29 39 31 29 3z m99 -2 c4 3 11 -2 14 -10 4 -13 2 -14 -14
-5 -11 6 -20 16 -19 23 0 9 2 9 6 -1 2 -6 8 -10 13 -7z m-1190 -39 c-4 -4 -16
-4 -26 2 -16 9 -14 10 8 9 15 -1 23 -6 18 -11z m-1239 -19 c-10 -9 -11 -8 -5
6 3 10 9 15 12 12 3 -3 0 -11 -7 -18z m1305 -12 c-1 -8 -5 -17 -8 -21 -5 -4
-4 16 1 34 3 9 9 -1 7 -13z m-1350 -19 c2 -12 1 -13 -3 -1 -5 18 -15 19 -33 3
-12 -11 -12 -10 -1 5 16 21 35 17 37 -7z m1374 -10 c0 -3 -4 -8 -10 -11 -5 -3
-10 -1 -10 4 0 6 5 11 10 11 6 0 10 -2 10 -4z m1273 -36 c3 -11 1 -18 -4 -14
-5 3 -9 12 -9 20 0 20 7 17 13 -6z m-1312 -17 c13 -16 12 -17 -3 -4 -17 13
-22 21 -14 21 2 0 10 -8 17 -17z m1285 8 c-4 -5 0 -11 6 -14 7 -2 9 -8 5 -13
-4 -5 -12 -3 -16 5 -6 10 -10 9 -15 -5 -3 -9 -9 -14 -13 -10 -3 3 2 15 12 26
19 21 30 27 21 11z m50 -26 c-1 -8 -5 -18 -9 -21 -12 -12 -8 -24 7 -24 16 0
29 -27 20 -41 -4 -6 -10 -6 -18 0 -7 6 -15 9 -17 7 -2 -3 -12 9 -21 25 -9 16
-13 30 -8 30 6 1 14 2 19 3 16 2 25 16 10 16 -11 0 -11 2 1 10 19 12 19 13 16
-5z m-1279 -8 c-1 -5 4 -12 12 -15 8 -2 11 0 8 5 -3 5 0 10 7 10 7 0 13 -6 13
-14 0 -7 -3 -11 -5 -8 -3 3 -11 0 -19 -6 -10 -9 -13 -8 -13 0 0 7 -5 9 -12 5
-7 -4 -10 -4 -6 1 4 4 3 13 -2 20 -7 8 -5 12 5 12 7 0 13 -5 12 -10z m79 -61
c1 -7 -4 -13 -12 -13 -9 0 -11 4 -4 12 5 7 8 15 5 18 -3 4 -2 5 2 2 4 -3 8
-11 9 -19z m1228 -83 c-3 -16 -5 -34 -6 -41 -1 -10 -4 -10 -15 1 -11 11 -12
19 -2 40 16 35 28 35 23 0z m-2804 0 c0 -15 -2 -16 -10 -3 -9 13 -10 13 -11 0
0 -8 -2 -23 -4 -32 -2 -10 0 -18 5 -18 4 0 11 -8 14 -17 5 -13 1 -12 -17 5
-18 17 -27 20 -32 11 -5 -7 -4 -10 2 -6 6 4 13 0 17 -8 3 -8 1 -17 -4 -20 -14
-8 -6 -45 11 -56 11 -7 11 -9 -3 -9 -10 0 -18 4 -18 10 0 5 -8 7 -17 4 -17 -5
-17 -5 0 6 9 6 15 16 12 21 -16 24 -13 58 5 79 11 12 17 26 15 30 -3 5 1 11 7
13 23 9 28 7 28 -10z m40 -17 c0 -3 -4 -8 -10 -11 -5 -3 -10 -1 -10 4 0 6 5
11 10 11 6 0 10 -2 10 -4z m2818 -51 c-3 -3 -9 2 -12 12 -6 14 -5 15 5 6 7 -7
10 -15 7 -18z m-1274 -18 c6 -22 7 -22 21 -3 8 11 15 15 15 9 0 -18 -27 -36
-35 -23 -4 6 -13 9 -20 6 -13 -5 -39 17 -30 25 13 14 44 5 49 -14z m-1604 -17
c0 -5 -4 -10 -10 -10 -5 0 -10 5 -10 10 0 6 5 10 10 10 6 0 10 -4 10 -10z
m1596 -32 c-1 -14 4 -22 12 -20 6 1 12 -3 12 -8 0 -6 -7 -10 -16 -8 -10 2 -19
-3 -22 -11 -3 -9 0 -11 8 -6 8 5 11 4 6 -3 -11 -18 -34 -2 -31 21 6 50 34 80
31 35z m1239 4 c-3 -3 -11 0 -18 7 -9 10 -8 11 6 5 10 -3 15 -9 12 -12z m8
-33 c3 -12 10 -18 16 -15 5 4 12 2 15 -3 7 -10 -9 -9 -36 4 -10 4 -15 12 -11
18 4 6 1 7 -6 3 -9 -6 -9 -12 3 -25 19 -20 20 -31 5 -31 -5 0 -8 4 -4 9 3 5 1
12 -5 16 -5 3 -10 -1 -10 -10 0 -9 -5 -13 -10 -10 -8 5 -8 11 -1 19 6 7 8 16
4 20 -4 4 -1 11 7 16 22 14 27 12 33 -11z m-1230 -44 c-3 -9 -8 -14 -10 -11
-3 3 -2 9 2 15 9 16 15 13 8 -4z m-1593 -15 c0 -5 -5 -10 -11 -10 -5 0 -7 5
-4 10 3 6 8 10 11 10 2 0 4 -4 4 -10z m2800 -11 c0 -5 -4 -7 -10 -4 -5 3 -10
2 -10 -4 0 -5 6 -11 13 -14 6 -3 2 -4 -10 -4 -22 1 -26 16 -8 29 14 11 25 10
25 -3z m-1205 -9 c3 -5 1 -10 -4 -10 -6 0 -11 5 -11 10 0 6 2 10 4 10 3 0 8
-4 11 -10z m-1629 -22 c5 -7 3 -8 -6 -3 -10 6 -12 4 -6 -11 5 -14 4 -16 -5 -7
-6 6 -8 16 -5 22 9 14 13 14 22 -1z m2774 -89 c0 -5 -7 -12 -15 -15 -8 -4 -12
-11 -8 -18 3 -6 2 -7 -2 -3 -13 11 -15 37 -4 37 6 0 7 4 4 10 -3 6 1 7 9 4 9
-3 16 -10 16 -15z m-2780 -9 c0 -5 -5 -10 -11 -10 -5 0 -7 5 -4 10 3 6 8 10
11 10 2 0 4 -4 4 -10z m2720 -16 c0 -8 -19 -13 -24 -6 -3 5 1 9 9 9 8 0 15 -2
15 -3z m80 2 c0 -2 -7 -7 -16 -10 -8 -3 -12 -2 -9 4 6 10 25 14 25 6z m-2825
-16 c3 -5 1 -10 -4 -10 -6 0 -11 5 -11 10 0 6 2 10 4 10 3 0 8 -4 11 -10z
m-48 -80 c1 -11 -2 -22 -8 -25 -10 -7 -13 28 -2 38 9 9 9 10 10 -13z m33 -410
c0 -5 6 -10 14 -10 8 0 18 -4 21 -10 4 -7 -2 -7 -19 0 -16 6 -27 6 -31 0 -4
-6 -1 -10 6 -10 7 0 9 -3 6 -7 -4 -3 0 -11 8 -17 13 -9 10 -11 -14 -11 -24 -1
-28 2 -19 13 9 10 9 15 -1 21 -10 6 -9 10 4 15 9 3 13 10 10 16 -3 5 -1 10 4
10 6 0 11 -4 11 -10z m20 -195 c5 3 11 1 14 -4 7 -10 -20 -9 -30 2 -4 3 -11 4
-16 1 -5 -3 -1 -12 9 -20 17 -13 17 -14 -1 -7 -13 4 -17 3 -13 -4 9 -14 -2
-43 -16 -43 -7 0 -7 4 1 12 16 16 15 31 0 22 -10 -6 -10 -4 0 8 10 13 10 17 0
21 -10 3 -10 7 -1 17 6 7 9 20 6 29 -4 9 4 4 16 -12 13 -15 26 -25 31 -22z
m-3 -62 c-4 -3 -1 -13 5 -22 10 -13 10 -14 -2 -4 -11 10 -16 7 -27 -14 -17
-33 -17 -38 2 -23 9 7 15 8 15 2 0 -14 -24 -22 -39 -12 -10 6 -10 9 -1 15 6 4
9 14 6 22 -3 8 -2 11 3 8 5 -3 12 4 16 15 3 11 11 20 17 20 6 0 8 -3 5 -7z
m18 -52 c3 -5 2 -12 -3 -15 -5 -3 -9 1 -9 9 0 17 3 19 12 6z m-35 -51 c-22
-19 -40 -19 -40 2 0 5 7 8 15 5 8 -4 17 -2 20 3 4 6 11 10 17 10 6 0 1 -9 -12
-20z m7 -107 c-4 -3 -1 -13 6 -22 11 -14 10 -14 -5 -2 -16 12 -16 31 -1 31 4
0 3 -3 0 -7z m50 -388 c0 -8 -4 -12 -9 -9 -5 3 -6 10 -3 15 9 13 12 11 12 -6z
m-77 -47 c0 7 5 10 10 7 6 -3 10 -16 9 -28 0 -17 -2 -18 -7 -6 -4 9 -15 15
-24 14 -11 -2 -15 2 -11 12 5 12 7 12 14 1 7 -10 9 -11 9 0z m55 -78 c3 -5 1
-10 -4 -10 -6 0 -11 5 -11 10 0 6 2 10 4 10 3 0 8 -4 11 -10z m-18 -65 c0 -8
-4 -12 -9 -9 -4 3 -8 9 -8 15 0 5 4 9 8 9 5 0 9 -7 9 -15z m-10 -62 c-4 -3 -1
-13 6 -22 11 -14 10 -14 -5 -2 -16 12 -16 31 -1 31 4 0 3 -3 0 -7z m33 -267
c0 -3 -4 -8 -10 -11 -5 -3 -10 -1 -10 4 0 6 5 11 10 11 6 0 10 -2 10 -4z
m2443 -36 c9 -11 13 -20 9 -20 -4 0 -15 9 -25 20 -9 11 -13 20 -9 20 4 0 15
-9 25 -20z m-2516 -5 c0 -8 -4 -12 -9 -9 -5 3 -6 10 -3 15 9 13 12 11 12 -6z
m871 -27 c-2 -7 2 -12 9 -11 7 2 10 -4 6 -12 -5 -13 -7 -13 -19 2 -16 22 -18
33 -4 33 6 0 9 -6 8 -12z m1702 6 c0 -8 -19 -13 -24 -6 -3 5 1 9 9 9 8 0 15
-2 15 -3z m-26 -40 c3 -8 2 -12 -4 -9 -6 3 -10 10 -10 16 0 14 7 11 14 -7z
m24 -9 c-3 -3 -9 2 -12 12 -6 14 -5 15 5 6 7 -7 10 -15 7 -18z m-2503 -15 c3
-5 1 -10 -4 -10 -6 0 -11 5 -11 10 0 6 2 10 4 10 3 0 8 -4 11 -10z m1690 0
c-3 -5 -12 -10 -18 -10 -7 0 -6 4 3 10 19 12 23 12 15 0z m-861 -38 c3 -5 -1
-9 -9 -9 -8 0 -15 4 -15 9 0 4 4 8 9 8 6 0 12 -4 15 -8z m831 -31 c-3 -6 -11
-11 -16 -11 -5 0 -4 6 3 14 14 16 24 13 13 -3z m-820 -11 c3 -5 1 -10 -4 -10
-6 0 -11 5 -11 10 0 6 2 10 4 10 3 0 8 -4 11 -10z m783 -12 c-1 -7 3 -23 10
-35 8 -15 9 -23 2 -23 -5 0 -10 8 -10 17 0 9 -3 13 -7 9 -13 -13 -9 -31 7 -38
9 -5 4 -7 -14 -5 -16 1 -31 8 -34 15 -2 7 2 10 11 6 16 -6 18 18 4 32 -8 8 11
34 25 34 5 0 8 -6 6 -12z m42 -2 c0 -2 -7 -7 -16 -10 -8 -3 -12 -2 -9 4 6 10
25 14 25 6z m-1733 -61 c0 -8 -4 -12 -9 -9 -5 3 -6 10 -3 15 9 13 12 11 12 -6z
m863 -5 c-8 -5 -19 -6 -25 -2 -5 3 -3 -5 7 -19 13 -20 13 -26 3 -26 -8 0 -12
4 -9 9 3 4 1 8 -5 8 -7 0 -9 32 -2 35 1 1 11 2 23 2 17 2 19 0 8 -7z m10 -20
c0 -5 -4 -10 -10 -10 -5 0 -10 5 -10 10 0 6 5 10 10 10 6 0 10 -4 10 -10z
m854 -6 c3 -8 2 -12 -4 -9 -6 3 -10 10 -10 16 0 14 7 11 14 -7z m-34 -4 c4 0
10 -6 13 -14 5 -11 1 -11 -24 1 -30 15 -40 30 -13 19 9 -3 19 -6 24 -6z
m-1625 -10 c3 -5 1 -10 -4 -10 -6 0 -11 5 -11 10 0 6 2 10 4 10 3 0 8 -4 11
-10z m821 -10 c0 -11 -4 -20 -8 -20 -10 0 -11 24 -1 33 9 9 9 10 9 -13z m804
-64 c0 -11 1 -31 1 -44 0 -14 5 -20 12 -16 7 3 1 -3 -12 -14 -23 -19 -23 -19
-2 -25 11 -3 21 -11 20 -19 0 -10 -2 -10 -6 0 -2 6 -9 12 -14 12 -6 0 -7 -5
-3 -11 5 -8 1 -8 -14 0 -20 10 -20 10 -5 -19 15 -31 27 -41 17 -15 -4 8 -1 15
6 15 6 0 8 -4 5 -10 -3 -5 -1 -10 4 -10 6 0 11 5 11 12 0 6 3 8 7 4 4 -4 -3
-16 -17 -26 l-25 -19 25 4 c13 3 27 -1 31 -7 6 -9 11 -9 21 0 9 7 19 8 28 2
11 -7 12 -10 2 -10 -7 0 -11 -4 -8 -9 8 -12 -19 -33 -29 -23 -5 4 -5 2 -2 -5
4 -6 16 -9 27 -6 15 4 19 2 14 -10 -6 -17 -36 -16 -42 1 -2 7 -9 9 -14 6 -7
-4 -8 -2 -4 4 5 9 -8 22 -52 48 -1 1 -5 11 -7 24 -2 12 -10 28 -16 36 -9 11
-8 19 6 34 14 15 15 20 4 20 -9 1 -6 7 8 19 19 16 20 20 7 25 -8 3 -13 10 -10
15 3 5 -2 12 -12 16 -16 6 -16 7 1 16 10 6 14 15 10 22 -4 7 0 7 10 -2 9 -7
17 -23 17 -35z m810 13 c0 -6 -4 -7 -10 -4 -5 3 -10 11 -10 16 0 6 5 7 10 4 6
-3 10 -11 10 -16z m-786 -19 c-6 -6 -10 -3 -10 10 0 13 4 16 10 10 7 -7 7 -13
0 -20z m-1659 0 c-3 -5 -13 -10 -21 -10 -8 0 -12 -5 -9 -10 4 -6 10 -8 14 -6
4 3 8 -2 8 -10 0 -10 -4 -11 -11 -4 -19 19 -26 10 -11 -14 15 -22 15 -24 0
-22 -8 1 -22 12 -31 24 -14 20 -12 26 9 23 4 0 7 4 7 9 0 6 10 15 23 20 29 12
29 12 22 0z m2509 -2 c-3 -5 -10 -6 -15 -3 -5 4 -9 1 -9 -6 0 -7 -3 -10 -6 -6
-9 9 3 24 20 24 8 0 13 -4 10 -9z m-1679 -28 c3 -6 -1 -7 -9 -4 -18 7 -21 14
-7 14 6 0 13 -4 16 -10z m858 -15 c4 -8 3 -16 -1 -19 -4 -3 -9 4 -9 15 -2 23
3 25 10 4z m-853 -15 c0 -5 -5 -10 -11 -10 -5 0 -7 5 -4 10 3 6 8 10 11 10 2
0 4 -4 4 -10z m835 -20 c3 -5 1 -10 -4 -10 -6 0 -11 5 -11 10 0 6 2 10 4 10 3
0 8 -4 11 -10z m-1695 -18 c0 -4 -5 -13 -11 -19 -8 -8 -8 -13 0 -17 6 -4 11
-2 11 4 0 6 5 8 11 4 13 -8 -8 -23 -40 -29 -22 -4 -24 23 -3 48 16 18 32 23
32 9z m916 -44 c4 -7 3 -8 -4 -4 -7 4 -12 2 -12 -3 0 -6 -5 -11 -11 -11 -8 0
-8 5 1 15 15 18 17 18 26 3z m806 -12 c7 4 8 2 4 -5 -10 -15 -26 -4 -25 17 1
15 2 15 6 -1 2 -9 9 -14 15 -11z m-1659 -11 c-3 -9 -8 -14 -10 -11 -3 3 -2 9
2 15 9 16 15 13 8 -4z m800 -31 c11 -11 -13 -43 -28 -38 -16 6 -16 25 0 36 12
9 20 10 28 2z"/>
<path d="M1306 4188 c3 -5 10 -6 15 -3 13 9 11 12 -6 12 -8 0 -12 -4 -9 -9z"/>
<path d="M1200 4100 c-9 -6 -10 -10 -3 -10 6 0 15 5 18 10 8 12 4 12 -15 0z"/>
<path d="M1878 3693 c7 -3 16 -2 19 1 4 3 -2 6 -13 5 -11 0 -14 -3 -6 -6z"/>
<path d="M1937 3681 c-4 -17 -3 -21 5 -13 5 5 8 16 6 23 -3 8 -7 3 -11 -10z"/>
<path d="M1870 3659 c0 -5 5 -7 10 -4 6 3 10 8 10 11 0 2 -4 4 -10 4 -5 0 -10
-5 -10 -11z"/>
<path d="M1975 3660 c3 -5 8 -10 11 -10 2 0 4 5 4 10 0 6 -5 10 -11 10 -5 0
-7 -4 -4 -10z"/>
<path d="M2091 3644 c0 -11 3 -14 6 -6 3 7 2 16 -1 19 -3 4 -6 -2 -5 -13z"/>
<path d="M2255 3200 c3 -5 8 -10 11 -10 2 0 4 5 4 10 0 6 -5 10 -11 10 -5 0
-7 -4 -4 -10z"/>
<path d="M2255 3169 c-4 -6 -5 -12 -2 -15 2 -3 7 2 10 11 7 17 1 20 -8 4z"/>
<path d="M2239 3128 c-8 -27 -5 -36 9 -30 10 4 12 7 4 10 -7 2 -10 8 -6 13 3
5 3 9 0 9 -3 0 -6 -1 -7 -2z"/>
<path d="M2250 3080 c0 -5 -8 -7 -17 -3 -15 5 -14 3 2 -10 18 -15 18 -16 3
-17 -10 0 -18 -5 -18 -10 0 -7 7 -7 20 0 11 6 17 16 14 22 -5 7 -2 9 9 5 11
-4 14 -2 10 9 -6 16 -23 19 -23 4z"/>
<path d="M2181 3044 c0 -11 3 -14 6 -6 3 7 2 16 -1 19 -3 4 -6 -2 -5 -13z"/>
<path d="M2155 3030 c-3 -5 -1 -10 4 -10 6 0 11 5 11 10 0 6 -2 10 -4 10 -3 0
-8 -4 -11 -10z"/>
<path d="M2035 2980 c-3 -5 -1 -10 4 -10 6 0 11 5 11 10 0 6 -2 10 -4 10 -3 0
-8 -4 -11 -10z"/>
<path d="M2072 2985 c4 -4 3 -14 -4 -22 -6 -7 -9 -15 -7 -18 3 -2 10 4 17 15
9 15 9 21 -1 26 -6 4 -9 4 -5 -1z"/>
<path d="M3170 3719 c0 -5 -4 -7 -10 -4 -6 4 -7 -1 -3 -11 4 -11 8 -13 11 -6
2 7 8 10 13 7 5 -4 6 1 3 9 -7 18 -14 21 -14 5z"/>
<path d="M3135 3660 c3 -5 8 -10 11 -10 2 0 4 5 4 10 0 6 -5 10 -11 10 -5 0
-7 -4 -4 -10z"/>
<path d="M3317 3649 c4 -13 8 -18 11 -10 2 7 -1 18 -6 23 -8 8 -9 4 -5 -13z"/>
<path d="M3010 3619 c0 -5 5 -7 10 -4 6 3 10 8 10 11 0 2 -4 4 -10 4 -5 0 -10
-5 -10 -11z"/>
<path d="M3390 3600 c0 -5 5 -10 11 -10 5 0 7 5 4 10 -3 6 -8 10 -11 10 -2 0
-4 -4 -4 -10z"/>
<path d="M3430 3561 c0 -6 4 -13 10 -16 6 -3 7 1 4 9 -7 18 -14 21 -14 7z"/>
<path d="M3496 3497 c3 -10 9 -15 12 -12 3 3 0 11 -7 18 -10 9 -11 8 -5 -6z"/>
<path d="M3595 3340 c-3 -5 -1 -10 4 -10 6 0 11 5 11 10 0 6 -2 10 -4 10 -3 0
-8 -4 -11 -10z"/>
<path d="M3541 3274 c0 -11 3 -14 6 -6 3 7 2 16 -1 19 -3 4 -6 -2 -5 -13z"/>
<path d="M3515 3219 c-3 -4 2 -6 10 -5 21 3 28 13 10 13 -9 0 -18 -4 -20 -8z"/>
<path d="M3470 3216 c0 -2 8 -10 18 -17 15 -13 16 -12 3 4 -13 16 -21 21 -21
13z"/>
<path d="M3416 3055 c-9 -26 -7 -32 5 -12 6 10 9 21 6 23 -2 3 -7 -2 -11 -11z"/>
<path d="M3446 3062 c-3 -5 1 -9 9 -9 8 0 12 4 9 9 -3 4 -7 8 -9 8 -2 0 -6 -4
-9 -8z"/>
<path d="M3326 3002 c-3 -5 1 -9 9 -9 8 0 12 4 9 9 -3 4 -7 8 -9 8 -2 0 -6 -4
-9 -8z"/>
<path d="M3255 2971 c-3 -5 -2 -12 3 -15 5 -3 9 1 9 9 0 17 -3 19 -12 6z"/>
<path d="M3530 3521 c0 -4 11 -18 25 -31 14 -13 25 -20 25 -15 0 4 -11 18 -25
31 -14 13 -25 20 -25 15z"/>
<path d="M3576 3393 c-6 -14 -5 -15 5 -6 7 7 10 15 7 18 -3 3 -9 -2 -12 -12z"/>
<path d="M2336 3318 c3 -5 10 -6 15 -3 13 9 11 12 -6 12 -8 0 -12 -4 -9 -9z"/>
<path d="M2340 3239 c0 -5 5 -7 10 -4 6 3 10 8 10 11 0 2 -4 4 -10 4 -5 0 -10
-5 -10 -11z"/>
<path d="M2345 921 c-3 -5 -2 -12 3 -15 5 -3 9 1 9 9 0 17 -3 19 -12 6z"/>
<path d="M2345 761 c-3 -5 -1 -12 5 -16 5 -3 10 1 10 9 0 18 -6 21 -15 7z"/>
<path d="M2390 552 c0 -28 52 -37 56 -9 2 15 0 16 -12 6 -11 -9 -17 -9 -29 1
-8 7 -15 8 -15 2z"/>
<path d="M681 693 c7 -12 15 -20 18 -17 3 2 -3 12 -13 22 -17 16 -18 16 -5 -5z"/>
<path d="M682 627 c-8 -9 -8 -17 0 -27 8 -13 9 -12 5 1 -3 9 0 22 6 28 6 6 8
11 5 11 -3 0 -10 -6 -16 -13z"/>
<path d="M2436 4622 c-3 -5 1 -9 9 -9 8 0 12 4 9 9 -3 4 -7 8 -9 8 -2 0 -6 -4
-9 -8z"/>
<path d="M2255 4611 c-3 -5 -2 -12 3 -15 5 -3 9 1 9 9 0 17 -3 19 -12 6z"/>
<path d="M2090 4600 c0 -5 5 -10 11 -10 5 0 7 5 4 10 -3 6 -8 10 -11 10 -2 0
-4 -4 -4 -10z"/>
<path d="M2020 4558 c0 -4 7 -8 15 -8 8 0 15 4 15 8 0 5 -7 9 -15 9 -8 0 -15
-4 -15 -9z"/>
<path d="M1874 4548 c1 -7 5 -19 9 -25 5 -7 4 -13 0 -13 -5 0 -15 6 -23 13
-12 10 -12 9 -2 -4 6 -9 8 -19 4 -24 -4 -4 3 -2 16 4 20 11 21 15 10 28 -7 9
-11 18 -10 20 2 3 1 7 -1 10 -3 3 -5 -1 -3 -9z"/>
<path d="M1948 4543 c7 -3 16 -2 19 1 4 3 -2 6 -13 5 -11 0 -14 -3 -6 -6z"/>
<path d="M1827 4516 c-5 -12 -3 -15 5 -10 8 5 9 1 4 -12 -5 -14 -4 -16 4 -7 8
7 9 17 3 28 -9 16 -10 16 -16 1z"/>
<path d="M1786 4481 c-4 -5 3 -7 14 -4 23 6 26 13 6 13 -8 0 -17 -4 -20 -9z"/>
<path d="M1617 4464 c-3 -3 -1 -18 4 -33 6 -14 10 -27 10 -28 -1 -2 1 -3 4 -3
3 0 7 0 9 0 3 0 -1 12 -9 27 -8 15 -12 30 -9 35 6 9 0 11 -9 2z"/>
<path d="M1650 4459 c0 -5 5 -7 10 -4 6 3 10 8 10 11 0 2 -4 4 -10 4 -5 0 -10
-5 -10 -11z"/>
<path d="M1703 4463 c-7 -2 -13 -12 -13 -21 0 -15 -2 -15 -10 -2 -7 12 -10 12
-10 1 0 -8 -6 -11 -17 -7 -15 5 -15 4 1 -9 14 -11 23 -12 33 -4 7 6 13 8 13 4
0 -5 8 -1 18 8 10 10 22 14 26 10 4 -4 4 0 0 10 -6 17 -18 20 -41 10z m17 -18
c-7 -9 -15 -13 -17 -11 -7 7 7 26 19 26 6 0 6 -6 -2 -15z"/>
<path d="M1537 4409 c4 -13 8 -18 11 -10 2 7 -1 18 -6 23 -8 8 -9 4 -5 -13z"/>
<path d="M1515 4390 c-3 -5 -1 -10 4 -10 6 0 11 5 11 10 0 6 -2 10 -4 10 -3 0
-8 -4 -11 -10z"/>
<path d="M1475 4371 c4 -8 2 -17 -6 -22 -9 -6 -10 -9 -2 -9 19 0 27 21 13 33
-10 9 -11 9 -5 -2z"/>
<path d="M1389 4323 c-13 -16 -12 -17 4 -4 9 7 17 15 17 17 0 8 -8 3 -21 -13z"/>
<path d="M1346 4305 c-18 -14 -18 -14 1 -12 11 0 20 7 20 14 0 7 -1 13 -1 13
-1 0 -9 -7 -20 -15z"/>
<path d="M1470 4289 c0 -5 5 -7 10 -4 6 3 10 8 10 11 0 2 -4 4 -10 4 -5 0 -10
-5 -10 -11z"/>
<path d="M1340 4270 c0 -5 -6 -7 -14 -4 -8 3 -16 1 -20 -4 -3 -5 5 -8 16 -7
19 1 41 25 24 25 -3 0 -6 -4 -6 -10z"/>
<path d="M1253 4235 c0 -8 4 -12 9 -9 5 3 6 10 3 15 -9 13 -12 11 -12 -6z"/>
<path d="M1140 4090 c-8 -5 -10 -10 -5 -10 6 0 3 -5 -5 -10 -9 -6 -10 -10 -3
-10 7 0 17 9 23 20 12 23 11 24 -10 10z"/>
<path d="M1096 4078 c3 -5 10 -6 15 -3 13 9 11 12 -6 12 -8 0 -12 -4 -9 -9z"/>
<path d="M1142 4051 c-8 -5 -12 -17 -10 -27 2 -15 5 -13 15 9 14 30 14 30 -5
18z"/>
<path d="M1016 3995 c-9 -26 -7 -32 5 -12 6 10 9 21 6 23 -2 3 -7 -2 -11 -11z"/>
<path d="M975 3940 c-3 -5 -1 -10 4 -10 6 0 11 5 11 10 0 6 -2 10 -4 10 -3 0
-8 -4 -11 -10z"/>
<path d="M970 3901 c0 -6 5 -11 11 -11 5 0 7 -5 3 -12 -4 -6 -3 -8 4 -4 6 3
13 2 17 -4 3 -5 -1 -10 -9 -10 -9 0 -16 -5 -16 -10 0 -7 6 -7 20 0 11 6 20 15
20 20 0 21 -2 25 -12 22 -6 -1 -16 3 -24 9 -10 8 -14 8 -14 0z"/>
<path d="M946 3834 c-4 -11 -11 -13 -19 -8 -7 5 -5 1 6 -8 15 -14 22 -15 38
-5 16 10 17 13 4 15 -8 2 -13 8 -10 13 4 5 2 9 -3 9 -6 0 -13 -7 -16 -16z"/>
<path d="M873 3755 c0 -8 4 -15 9 -15 4 0 8 4 8 9 0 6 -4 12 -8 15 -5 3 -9 -1
-9 -9z"/>
<path d="M906 3726 c3 -9 11 -16 16 -16 13 0 5 23 -10 28 -7 2 -10 -2 -6 -12z"/>
<path d="M837 3689 c4 -13 8 -18 11 -10 2 7 -1 18 -6 23 -8 8 -9 4 -5 -13z"/>
<path d="M776 3618 c3 -5 10 -6 15 -3 13 9 11 12 -6 12 -8 0 -12 -4 -9 -9z"/>
<path d="M813 3615 c0 -8 4 -12 9 -9 4 3 8 1 8 -4 0 -6 7 -12 15 -16 9 -3 15
0 15 10 0 8 -5 12 -10 9 -6 -3 -13 1 -16 9 -8 20 -21 21 -21 1z"/>
<path d="M759 3548 c-8 -27 -5 -36 9 -30 10 4 12 7 4 10 -7 2 -10 8 -6 13 3 5
3 9 0 9 -3 0 -6 -1 -7 -2z"/>
<path d="M730 3460 c-9 -6 -10 -10 -3 -10 6 0 15 5 18 10 8 12 4 12 -15 0z"/>
<path d="M679 3373 c-13 -16 -12 -17 4 -4 9 7 17 15 17 17 0 8 -8 3 -21 -13z"/>
<path d="M677 3229 c7 -7 15 -10 18 -7 3 3 -2 9 -12 12 -14 6 -15 5 -6 -5z"/>
<path d="M704 3212 c-6 -4 -13 -15 -17 -25 -6 -15 -4 -16 13 -7 10 5 21 14 25
19 7 13 -8 22 -21 13z"/>
<path d="M661 3164 c0 -11 3 -14 6 -6 3 7 2 16 -1 19 -3 4 -6 -2 -5 -13z"/>
<path d="M635 3151 c-3 -5 -2 -12 3 -15 5 -3 9 1 9 9 0 17 -3 19 -12 6z"/>
<path d="M610 3059 c0 -5 5 -7 10 -4 6 3 10 8 10 11 0 2 -4 4 -10 4 -5 0 -10
-5 -10 -11z"/>
<path d="M641 3003 c7 -12 15 -20 18 -17 3 2 -3 12 -13 22 -17 16 -18 16 -5
-5z"/>
<path d="M644 2558 c15 -24 20 -25 32 -13 8 7 14 17 14 21 0 5 -5 3 -12 -4 -9
-9 -16 -8 -31 6 -20 17 -20 17 -3 -10z"/>
<path d="M628 2378 c5 -5 16 -8 23 -6 8 3 3 7 -10 11 -17 4 -21 3 -13 -5z"/>
<path d="M620 2266 c0 -2 8 -10 18 -17 15 -13 16 -12 3 4 -13 16 -21 21 -21
13z"/>
<path d="M626 2221 c-4 -5 3 -7 14 -4 23 6 26 13 6 13 -8 0 -17 -4 -20 -9z"/>
<path d="M636 2173 c-6 -14 -5 -15 5 -6 7 7 10 15 7 18 -3 3 -9 -2 -12 -12z"/>
<path d="M628 2138 c5 -5 16 -8 23 -6 8 3 3 7 -10 11 -17 4 -21 3 -13 -5z"/>
<path d="M662 2122 c-9 -6 -5 -12 15 -20 24 -11 26 -10 11 1 -10 8 -15 17 -11
20 9 9 1 8 -15 -1z"/>
<path d="M636 2097 c3 -10 9 -15 12 -12 3 3 0 11 -7 18 -10 9 -11 8 -5 -6z"/>
<path d="M638 2043 c7 -3 16 -2 19 1 4 3 -2 6 -13 5 -11 0 -14 -3 -6 -6z"/>
<path d="M620 2026 c0 -2 8 -10 18 -17 15 -13 16 -12 3 4 -13 16 -21 21 -21
13z"/>
<path d="M623 1977 c-3 -6 -1 -7 4 -4 13 8 36 -17 25 -28 -4 -5 -2 -5 4 -2 7
4 12 -3 12 -18 0 -16 -5 -22 -12 -18 -6 4 -5 -1 3 -10 18 -22 3 -22 -23 1 -20
16 -20 16 -7 -1 8 -10 28 -25 45 -33 25 -12 28 -12 13 -1 -15 12 -15 16 -3 26
16 14 15 33 -3 55 -7 8 -10 20 -6 25 4 7 -1 8 -11 4 -10 -4 -15 -2 -11 4 3 5
-1 10 -9 10 -8 0 -18 -5 -21 -10z"/>
<path d="M636 1857 c3 -10 9 -15 12 -12 3 3 0 11 -7 18 -10 9 -11 8 -5 -6z"/>
<path d="M638 1803 c7 -3 16 -2 19 1 4 3 -2 6 -13 5 -11 0 -14 -3 -6 -6z"/>
<path d="M662 1791 c-11 -6 -10 -10 4 -15 9 -3 19 -4 22 -1 3 3 -1 5 -9 5 -11
0 -11 2 1 10 8 5 11 10 5 10 -5 0 -16 -4 -23 -9z"/>
<path d="M632 1774 c10 -10 20 -16 22 -13 3 3 -5 11 -17 18 -21 13 -21 12 -5
-5z"/>
<path d="M635 1690 c-3 -5 -1 -10 4 -10 6 0 11 5 11 10 0 6 -2 10 -4 10 -3 0
-8 -4 -11 -10z"/>
<path d="M632 1654 c10 -10 20 -16 22 -13 3 3 -5 11 -17 18 -21 13 -21 12 -5
-5z"/>
<path d="M635 1570 c-3 -5 -1 -10 4 -10 6 0 11 5 11 10 0 6 -2 10 -4 10 -3 0
-8 -4 -11 -10z"/>
<path d="M666 1571 c-4 -6 -4 -11 1 -11 4 0 1 -5 -7 -10 -8 -5 -10 -10 -5 -10
6 0 11 -9 12 -20 1 -13 -2 -18 -10 -13 -7 4 -5 -2 3 -12 14 -17 13 -18 -2 -12
-30 11 -20 -2 15 -18 25 -12 28 -13 14 -1 -12 9 -14 16 -8 21 8 4 8 12 1 26
-8 14 -7 19 2 19 10 0 10 2 -1 9 -11 7 -11 9 0 14 11 3 11 8 3 17 -8 8 -14 9
-18 1z"/>
<path d="M620 1546 c0 -2 8 -10 18 -17 15 -13 16 -12 3 4 -13 16 -21 21 -21
13z"/>
<path d="M635 1450 c-3 -5 -1 -10 4 -10 6 0 11 5 11 10 0 6 -2 10 -4 10 -3 0
-8 -4 -11 -10z"/>
<path d="M632 1414 c10 -10 20 -16 22 -13 3 3 -5 11 -17 18 -21 13 -21 12 -5
-5z"/>
<path d="M640 1334 c-11 -12 -11 -15 1 -12 8 2 13 -3 11 -10 -1 -8 2 -11 7 -8
4 3 9 -5 9 -19 0 -16 -5 -22 -12 -18 -6 4 -4 -2 4 -12 14 -17 13 -18 -2 -12
-10 3 -20 1 -24 -6 -4 -7 -4 -9 1 -5 4 4 22 0 39 -8 24 -12 27 -12 13 -1 -15
12 -15 16 -3 26 16 14 15 33 -3 55 -7 8 -10 20 -6 25 4 7 -1 8 -11 4 -12 -4
-15 -3 -10 5 10 17 1 15 -14 -4z"/>
<path d="M633 1285 c0 -8 4 -12 9 -9 5 3 6 10 3 15 -9 13 -12 11 -12 -6z"/>
<path d="M635 1210 c3 -5 8 -10 11 -10 2 0 4 5 4 10 0 6 -5 10 -11 10 -5 0 -7
-4 -4 -10z"/>
<path d="M1506 1113 c-4 -5 -13 -8 -19 -8 -7 -1 -10 -7 -8 -15 2 -8 4 -21 4
-27 0 -7 4 -13 9 -13 4 0 8 -5 8 -11 0 -6 -8 -8 -19 -4 -11 3 -22 1 -26 -4 -4
-7 1 -8 11 -4 12 4 15 3 10 -5 -4 -7 -2 -10 6 -7 10 4 14 -3 14 -20 0 -20 -4
-24 -20 -20 -19 5 -18 4 2 -8 12 -7 20 -16 17 -19 -7 -7 16 -58 26 -58 15 0
21 21 10 34 -6 7 -8 16 -4 19 3 4 1 7 -5 7 -15 0 -15 -6 -2 -31 6 -10 8 -19 6
-19 -3 0 -11 10 -17 22 -10 18 -8 24 7 35 11 8 13 13 5 13 -11 0 -11 3 -1 15
7 8 9 15 5 15 -4 0 -3 6 3 13 7 8 7 18 2 27 -9 13 -10 13 -10 0 -1 -12 -3 -11
-11 3 -5 9 -7 22 -3 29 4 7 3 8 -4 4 -19 -11 -14 5 5 20 10 7 15 15 12 18 -3
3 -9 3 -13 -1z m16 -97 c-4 -6 -7 -14 -7 -18 0 -19 -11 -14 -11 6 0 12 6 23
13 23 6 0 9 -5 5 -11z"/>
<path d="M3176 1067 c3 -10 9 -15 12 -12 3 3 0 11 -7 18 -10 9 -11 8 -5 -6z"/>
<path d="M2275 1050 c3 -5 8 -10 11 -10 2 0 4 5 4 10 0 6 -5 10 -11 10 -5 0
-7 -4 -4 -10z"/>
<path d="M3183 1025 c0 -8 4 -12 9 -9 5 3 6 10 3 15 -9 13 -12 11 -12 -6z"/>
<path d="M635 1020 c-3 -5 -1 -10 4 -10 6 0 11 5 11 10 0 6 -2 10 -4 10 -3 0
-8 -4 -11 -10z"/>
<path d="M1406 1002 c-3 -5 1 -9 9 -9 8 0 12 4 9 9 -3 4 -7 8 -9 8 -2 0 -6 -4
-9 -8z"/>
<path d="M2255 1000 c-3 -5 -1 -10 4 -10 6 0 11 5 11 10 0 6 -2 10 -4 10 -3 0
-8 -4 -11 -10z"/>
<path d="M3130 960 c0 -5 5 -10 10 -10 6 0 10 5 10 10 0 6 -4 10 -10 10 -5 0
-10 -4 -10 -10z"/>
<path d="M2299 938 c-5 -18 -6 -38 -1 -34 7 8 12 36 6 36 -2 0 -4 -1 -5 -2z"/>
<path d="M3070 936 c0 -2 8 -10 18 -17 15 -13 16 -12 3 4 -13 16 -21 21 -21
13z"/>
<path d="M1455 920 c3 -5 8 -10 11 -10 2 0 4 5 4 10 0 6 -5 10 -11 10 -5 0 -7
-4 -4 -10z"/>
<path d="M3130 899 c0 -5 5 -7 10 -4 6 3 10 8 10 11 0 2 -4 4 -10 4 -5 0 -10
-5 -10 -11z"/>
<path d="M1457 887 c-3 -8 1 -14 8 -14 7 0 11 6 8 14 -3 7 -6 13 -8 13 -2 0
-5 -6 -8 -13z"/>
<path d="M1455 819 c-4 -5 -1 -8 7 -7 7 2 12 -5 12 -14 -1 -10 2 -15 7 -12 14
8 11 31 -6 37 -8 4 -17 2 -20 -4z"/>
<path d="M3115 800 c3 -5 8 -10 11 -10 2 0 4 5 4 10 0 6 -5 10 -11 10 -5 0 -7
-4 -4 -10z"/>
<path d="M3110 745 c0 -7 30 -13 34 -7 3 4 -4 9 -15 9 -10 1 -19 0 -19 -2z"/>
<path d="M1475 620 c-3 -6 1 -7 9 -4 18 7 21 14 7 14 -6 0 -13 -4 -16 -10z"/>
<path d="M3139 618 c-5 -19 -8 -50 -4 -46 7 7 15 48 9 48 -2 0 -4 -1 -5 -2z"/>
<path d="M3160 600 c0 -5 5 -10 10 -10 6 0 10 5 10 10 0 6 -4 10 -10 10 -5 0
-10 -4 -10 -10z"/>
<path d="M3189 601 c-1 -6 -2 -16 -3 -22 0 -6 -9 -17 -19 -24 -18 -13 -17 -14
2 -20 12 -3 21 -13 21 -20 0 -8 10 -19 23 -25 19 -9 20 -9 6 2 -8 7 -18 21
-22 31 -3 9 -11 17 -17 17 -6 0 -9 4 -5 10 9 14 35 0 36 -19 0 -9 14 -27 32
-41 18 -13 26 -18 20 -9 -7 9 -10 19 -6 22 3 4 11 -1 18 -10 10 -14 12 -13 10
8 -1 13 -7 24 -14 24 -6 0 -16 6 -20 14 -5 7 -14 10 -21 6 -7 -4 -13 1 -17 14
-3 12 -10 21 -17 21 -6 0 -6 4 3 9 9 6 10 11 2 15 -6 4 -12 2 -12 -3z m65 -93
c-3 -5 -12 -4 -20 3 -7 6 -11 15 -8 21 3 5 12 4 20 -3 7 -6 11 -15 8 -21z"/>
<path d="M712 568 c-7 -7 -12 -9 -12 -5 0 4 -9 3 -20 -3 -11 -6 -20 -16 -19
-23 0 -9 2 -9 6 1 2 6 9 12 14 12 10 0 8 -28 -4 -47 -5 -8 -4 -13 2 -13 10 0
15 13 12 32 0 4 8 6 19 5 24 -2 25 -6 3 -22 -14 -10 -15 -16 -5 -27 6 -8 9
-18 5 -21 -3 -4 -1 -7 5 -7 15 0 15 13 0 28 -6 6 -9 15 -5 19 4 3 14 -2 21
-13 8 -10 18 -16 22 -11 4 4 2 7 -4 7 -7 0 -12 4 -12 9 0 5 10 7 23 5 16 -3
18 -2 5 3 -12 6 -15 12 -8 23 7 10 10 11 10 3 0 -7 5 -13 11 -13 8 0 8 4 0 14
-7 8 -21 13 -32 11 -16 -3 -19 0 -14 15 7 22 -7 34 -23 18z m10 -15 c-6 -3 -9
-10 -5 -16 4 -7 -1 -6 -10 2 -21 17 -21 17 6 18 12 0 16 -1 9 -4z m19 -46
c-10 -9 -11 -8 -5 6 3 10 9 15 12 12 3 -3 0 -11 -7 -18z"/>
<path d="M634 555 c3 -23 12 -26 13 -5 1 11 -2 20 -7 20 -4 0 -7 -7 -6 -15z"/>
<path d="M1600 541 c-13 -25 -13 -28 3 -34 9 -3 13 5 12 24 0 34 -1 35 -15 10z"/>
<path d="M2315 525 c0 -13 3 -21 8 -18 4 2 7 10 7 18 0 8 -3 16 -7 18 -5 3 -8
-5 -8 -18z"/>
<path d="M1479 538 c-6 -20 -6 -39 0 -42 4 -3 7 6 7 20 0 20 -4 32 -7 22z"/>
<path d="M655 509 c-4 -6 -5 -12 -2 -15 2 -3 7 2 10 11 7 17 1 20 -8 4z"/>
<path d="M1515 490 c10 -11 20 -20 23 -20 3 0 -3 9 -13 20 -10 11 -20 20 -23
20 -3 0 3 -9 13 -20z"/>
<path d="M1606 477 c3 -10 9 -15 12 -12 3 3 0 11 -7 18 -10 9 -11 8 -5 -6z"/>
<path d="M2356 471 c-3 -5 1 -11 9 -14 9 -4 12 -1 8 9 -6 16 -10 17 -17 5z"/>
<path d="M3190 470 c-9 -6 -10 -10 -3 -10 6 0 15 5 18 10 8 12 4 12 -15 0z"/>
<path d="M655 460 c-3 -5 -1 -10 4 -10 6 0 11 5 11 10 0 6 -2 10 -4 10 -3 0
-8 -4 -11 -10z"/>
<path d="M2395 461 c-3 -5 0 -13 6 -17 7 -4 9 -3 5 4 -3 5 0 13 6 15 9 4 10 6
1 6 -6 1 -14 -3 -18 -8z"/>
<path d="M3235 460 c27 -12 43 -12 25 0 -8 5 -22 9 -30 9 -10 0 -8 -3 5 -9z"/>
<path d="M3215 440 c3 -5 8 -10 11 -10 2 0 4 5 4 10 0 6 -5 10 -11 10 -5 0 -7
-4 -4 -10z"/>
</g>
</svg>
